grf
version=1
nRows=19
nColumns=37
inDegrees=no
endheader
time	ground_force_1_vx	ground_force_1_vy	ground_force_1_vz	ground_force_1_px	ground_force_1_py	ground_force_1_pz	ground_moment_1_mx	ground_moment_1_my	ground_moment_1_mz	ground_force_2_vx	ground_force_2_vy	ground_force_2_vz	ground_force_2_px	ground_force_2_py	ground_force_2_pz	ground_moment_2_mx	ground_moment_2_my	ground_moment_2_mz	ground_force_3_vx	ground_force_3_vy	ground_force_3_vz	ground_force_3_px	ground_force_3_py	ground_force_3_pz	ground_moment_3_mx	ground_moment_3_my	ground_moment_3_mz	ground_force_4_vx	ground_force_4_vy	ground_force_4_vz	ground_force_4_px	ground_force_4_py	ground_force_4_pz	ground_moment_4_mx	ground_moment_4_my	ground_moment_4_mz
      3.25000000	      0.00000000	     -0.00000000	      0.00000000	      0.00000000	      0.00000000	      0.00000000	      0.00000000	      0.00000000	      0.00000000	     -0.86666489	     17.15766144	   -355.60205078	   -310.20848089	  -1139.19430626	      0.00000000	      0.00000000	      0.00000000	   9327.49339818	      4.89803143	    -19.53819699	   -399.60296631	   -323.70141879	   -702.34599993	      0.00000000	      0.00000000	     -0.00000000	  -9341.14266433	      0.00000000	     -0.00000000	      0.00000000	      0.00000000	      0.00000000	      0.00000000	      0.00000000	      0.00000000	      0.00000000
      3.26000000	      0.00000000	     -0.00000000	      0.00000000	      0.00000000	      0.00000000	      0.00000000	      0.00000000	      0.00000000	      0.00000000	     -1.54275084	     17.30389404	   -355.70590210	   -310.08117061	  -1138.85193086	      0.00000000	      0.00000000	      0.00000000	   9127.05131116	      5.27136822	    -19.55772255	   -397.03451538	   -323.77320574	   -703.72915867	      0.00000000	      0.00000000	     -0.00000000	  -9219.67810230	      0.00000000	     -0.00000000	      0.00000000	      0.00000000	      0.00000000	      0.00000000	      0.00000000	      0.00000000	      0.00000000
      3.27000000	      0.00000000	     -0.00000000	      0.00000000	      0.00000000	      0.00000000	      0.00000000	      0.00000000	      0.00000000	      0.00000000	     -0.33008218	     17.31002045	   -354.61761475	   -309.21166288	  -1138.48737904	      0.00000000	      0.00000000	      0.00000000	   9314.84553001	      5.66399120	    -19.19767811	   -397.91134644	   -324.20140261	   -702.76572689	      0.00000000	      0.00000000	     -0.00000000	  -9255.86734076	      0.00000000	     -0.00000000	      0.00000000	      0.00000000	      0.00000000	      0.00000000	      0.00000000	      0.00000000	      0.00000000
      3.28000000	      0.00000000	     -0.00000000	      0.00000000	      0.00000000	      0.00000000	      0.00000000	      0.00000000	      0.00000000	      0.00000000	      0.16605720	     17.47221947	   -354.23950195	   -309.53679103	  -1139.25770711	      0.00000000	      0.00000000	      0.00000000	   9360.45332398	      5.80290580	    -19.07748464	   -395.22760010	   -323.43311311	   -703.53079176	      0.00000000	      0.00000000	     -0.00000000	  -9114.04238367	      0.00000000	     -0.00000000	      0.00000000	      0.00000000	      0.00000000	      0.00000000	      0.00000000	      0.00000000	      0.00000000
      3.29000000	      0.00000000	     -0.00000000	      0.00000000	      0.00000000	      0.00000000	      0.00000000	      0.00000000	      0.00000000	      0.00000000	      0.26310402	     17.59715271	   -354.84240723	   -309.31512841	  -1138.83030677	      0.00000000	      0.00000000	      0.00000000	   9239.22290540	      5.97585939	    -19.29211859	   -396.13653564	   -322.36422856	   -702.06095608	      0.00000000	      0.00000000	     -0.00000000	  -9127.86210968	      0.00000000	     -0.00000000	      0.00000000	      0.00000000	      0.00000000	      0.00000000	      0.00000000	      0.00000000	      0.00000000
      3.30000000	      0.00000000	     -0.00000000	      0.00000000	      0.00000000	      0.00000000	      0.00000000	      0.00000000	      0.00000000	      0.00000000	     -0.14210489	     17.86236382	   -354.94586182	   -308.46721955	  -1138.84810417	      0.00000000	      0.00000000	      0.00000000	   9212.43853036	      5.61273457	    -18.98916294	   -397.07971191	   -322.17880592	   -702.00819880	      0.00000000	      0.00000000	     -0.00000000	  -9129.79128664	      0.00000000	     -0.00000000	      0.00000000	      0.00000000	      0.00000000	      0.00000000	      0.00000000	      0.00000000	      0.00000000
      3.31000000	      0.00000000	     -0.00000000	      0.00000000	      0.00000000	      0.00000000	      0.00000000	      0.00000000	      0.00000000	      0.00000000	     -0.48206598	     17.83807373	   -357.84252930	   -309.08727229	  -1139.74447628	      0.00000000	      0.00000000	      0.00000000	   9248.01521574	      5.15991231	    -19.51038596	   -396.74072266	   -322.09092139	   -702.08579974	      0.00000000	      0.00000000	     -0.00000000	  -9147.99351251	      0.00000000	     -0.00000000	      0.00000000	      0.00000000	      0.00000000	      0.00000000	      0.00000000	      0.00000000	      0.00000000
      3.32000000	      0.00000000	     -0.00000000	      0.00000000	      0.00000000	      0.00000000	      0.00000000	      0.00000000	      0.00000000	      0.00000000	     -0.92189163	     17.46354675	   -357.98330688	   -308.39322182	  -1139.71876203	      0.00000000	      0.00000000	      0.00000000	   9300.15150897	      5.38783810	    -19.35415697	   -397.28826904	   -321.62293649	   -701.53993768	      0.00000000	      0.00000000	     -0.00000000	  -9265.90055796	      0.00000000	     -0.00000000	      0.00000000	      0.00000000	      0.00000000	      0.00000000	      0.00000000	      0.00000000	      0.00000000
      3.33000000	      0.00000000	     -0.00000000	      0.00000000	      0.00000000	      0.00000000	      0.00000000	      0.00000000	      0.00000000	      0.00000000	     -0.67507023	     17.81675529	   -358.93771362	   -308.61926099	  -1140.16014638	      0.00000000	      0.00000000	      0.00000000	   9237.76778273	      5.64845867	    -19.69588901	   -397.35742188	   -321.23536343	   -702.14665059	      0.00000000	      0.00000000	     -0.00000000	  -9135.71390443	      0.00000000	     -0.00000000	      0.00000000	      0.00000000	      0.00000000	      0.00000000	      0.00000000	      0.00000000	      0.00000000
      3.34000000	      0.00000000	     -0.00000000	      0.00000000	      0.00000000	      0.00000000	      0.00000000	      0.00000000	      0.00000000	      0.00000000	     -0.55470151	     18.20202255	   -359.18402100	   -307.53618219	  -1140.30437999	      0.00000000	      0.00000000	      0.00000000	   9312.43534579	      5.96330515	    -20.01466040	   -397.81954956	   -321.16270916	   -701.91656698	      0.00000000	      0.00000000	     -0.00000000	  -9180.07565867	      0.00000000	     -0.00000000	      0.00000000	      0.00000000	      0.00000000	      0.00000000	      0.00000000	      0.00000000	      0.00000000
      3.35000000	      0.00000000	     -0.00000000	      0.00000000	      0.00000000	      0.00000000	      0.00000000	      0.00000000	      0.00000000	      0.00000000	     -1.03022432	     17.95401382	   -359.88446045	   -308.03190925	  -1138.82337471	      0.00000000	      0.00000000	      0.00000000	   9285.03834104	      5.22946948	    -19.72532700	   -396.89566040	   -320.80162617	   -702.12832965	      0.00000000	      0.00000000	     -0.00000000	  -9070.04235790	      0.00000000	     -0.00000000	      0.00000000	      0.00000000	      0.00000000	      0.00000000	      0.00000000	      0.00000000	      0.00000000
      3.36000000	      0.00000000	     -0.00000000	      0.00000000	      0.00000000	      0.00000000	      0.00000000	      0.00000000	      0.00000000	      0.00000000	     -0.88274044	     18.41580391	   -359.85327148	   -306.44862713	  -1139.33004717	      0.00000000	      0.00000000	      0.00000000	   9428.84257277	      4.76781337	    -19.92699856	   -396.54742432	   -320.71766833	   -701.46308419	      0.00000000	      0.00000000	     -0.00000000	  -9111.41697464	      0.00000000	     -0.00000000	      0.00000000	      0.00000000	      0.00000000	      0.00000000	      0.00000000	      0.00000000	      0.00000000
      3.37000000	      0.00000000	     -0.00000000	      0.00000000	      0.00000000	      0.00000000	      0.00000000	      0.00000000	      0.00000000	      0.00000000	     -1.72880697	     18.21640778	   -361.92184448	   -306.69485402	  -1140.55539390	      0.00000000	      0.00000000	      0.00000000	   9302.63222914	      4.38562316	    -19.70141640	   -395.95971680	   -319.33513115	   -702.39578066	      0.00000000	      0.00000000	     -0.00000000	  -9126.41695885	      0.00000000	     -0.00000000	      0.00000000	      0.00000000	      0.00000000	      0.00000000	      0.00000000	      0.00000000	      0.00000000
      3.38000000	      0.00000000	     -0.00000000	      0.00000000	      0.00000000	      0.00000000	      0.00000000	      0.00000000	      0.00000000	      0.00000000	     -2.41982079	     18.97364807	   -362.80404663	   -308.03517255	  -1139.44621215	      0.00000000	      0.00000000	      0.00000000	   9386.70420487	      3.74791469	    -20.27005419	   -397.90258789	   -319.93063592	   -701.23597499	      0.00000000	      0.00000000	     -0.00000000	  -9194.30431314	      0.00000000	     -0.00000000	      0.00000000	      0.00000000	      0.00000000	      0.00000000	      0.00000000	      0.00000000	      0.00000000
      3.39000000	      0.00000000	     -0.00000000	      0.00000000	      0.00000000	      0.00000000	      0.00000000	      0.00000000	      0.00000000	      0.00000000	     -3.11609793	     19.80398941	   -364.98669434	   -306.19896380	  -1140.78561598	      0.00000000	      0.00000000	      0.00000000	   9402.90603690	      4.13668458	    -20.00489080	   -396.35186768	   -319.29543249	   -702.01135494	      0.00000000	      0.00000000	     -0.00000000	  -9295.44177060	      0.00000000	     -0.00000000	      0.00000000	      0.00000000	      0.00000000	      0.00000000	      0.00000000	      0.00000000	      0.00000000
      3.40000000	      0.00000000	     -0.00000000	      0.00000000	      0.00000000	      0.00000000	      0.00000000	      0.00000000	      0.00000000	      0.00000000	     -3.66856003	     20.01980591	   -364.07821655	   -306.32704714	  -1139.80720731	      0.00000000	      0.00000000	      0.00000000	   9537.99535730	      3.98117460	    -20.32697903	   -395.80151367	   -318.57238718	   -702.67963936	      0.00000000	      0.00000000	     -0.00000000	  -8972.57945471	      0.00000000	     -0.00000000	      0.00000000	      0.00000000	      0.00000000	      0.00000000	      0.00000000	      0.00000000	      0.00000000
      3.41000000	      0.00000000	     -0.00000000	      0.00000000	      0.00000000	      0.00000000	      0.00000000	      0.00000000	      0.00000000	      0.00000000	     -3.39546919	     20.65137100	   -364.79748535	   -305.37756996	  -1140.18543003	      0.00000000	      0.00000000	      0.00000000	   9450.26032331	      3.90330236	    -19.87234913	   -394.52029419	   -318.22000571	   -701.98933258	      0.00000000	      0.00000000	     -0.00000000	  -9088.51106313	      0.00000000	     -0.00000000	      0.00000000	      0.00000000	      0.00000000	      0.00000000	      0.00000000	      0.00000000	      0.00000000
      3.42000000	      0.00000000	     -0.00000000	      0.00000000	      0.00000000	      0.00000000	      0.00000000	      0.00000000	      0.00000000	      0.00000000	     -3.43269682	     20.47866249	   -364.29757690	   -305.23290328	  -1140.79182685	      0.00000000	      0.00000000	      0.00000000	   9476.19130771	      3.87160651	    -19.98596797	   -391.34060669	   -317.16061092	   -702.40027303	      0.00000000	     -0.00000000	     -0.00000000	  -9035.13959330	      0.00000000	     -0.00000000	      0.00000000	      0.00000000	      0.00000000	      0.00000000	      0.00000000	      0.00000000	      0.00000000
      3.43000000	      0.00000000	     -0.00000000	      0.00000000	      0.00000000	      0.00000000	      0.00000000	      0.00000000	      0.00000000	      0.00000000	     -4.19060755	     20.48411179	   -363.24569702	   -305.23817998	  -1140.60988302	      0.00000000	      0.00000000	      0.00000000	   9371.32748177	      3.15704652	    -19.52948789	   -390.31048584	   -316.59624965	   -702.67590213	      0.00000000	      0.00000000	     -0.00000000	  -8977.66177094	      0.00000000	     -0.00000000	      0.00000000	      0.00000000	      0.00000000	      0.00000000	      0.00000000	      0.00000000	      0.00000000
